<svg width="55" height="55" viewBox="0 0 55 55" fill="none" xmlns="http://www.w3.org/2000/svg">
<g clip-path="url(#clip0_716_2)">
<rect width="55" height="55" rx="8" fill="#F8F8F8"/>
<rect x="37.543" y="40.4346" width="7.33943" height="7.33943" fill="#84CDBC"/>
<path fillRule="evenodd" clipRule="evenodd" d="M43.7037 37.9006C45.3517 34.9214 46.1758 31.2894 46.1758 27.0045C46.1758 22.7197 45.3517 19.0877 43.7037 16.1085C42.0557 13.1294 39.8245 10.8665 37.0102 9.31992C34.2085 7.77331 31.0646 7 27.5784 7C24.0795 7 20.9292 7.77331 18.1276 9.31992C15.3259 10.8665 13.1011 13.1294 11.453 16.1085C9.81768 19.0877 9 22.7197 9 27.0045C9 31.2767 9.81768 34.9024 11.453 37.8815C13.1011 40.848 15.3259 43.1109 18.1276 44.6702C20.9292 46.2295 24.0795 47.0091 27.5784 47.0091C30.4066 47.0091 33.0095 46.5002 35.3872 45.4823V37.9091H43.699C43.7006 37.9063 43.7021 37.9034 43.7037 37.9006ZM35.4699 20.5772C36.1925 22.3267 36.5538 24.4691 36.5538 27.0045C36.5538 29.54 36.1925 31.6824 35.4699 33.4319C34.76 35.1813 33.7331 36.5061 32.3893 37.4062C31.0582 38.3062 29.4546 38.7563 27.5784 38.7563C25.7148 38.7563 24.1112 38.3062 22.7674 37.4062C21.4236 36.5061 20.3904 35.1813 19.6678 33.4319C18.9579 31.6824 18.6029 29.54 18.6029 27.0045C18.6029 24.4691 18.9579 22.3267 19.6678 20.5772C20.3904 18.8278 21.4236 17.503 22.7674 16.6029C24.1112 15.7029 25.7148 15.2528 27.5784 15.2528C29.4546 15.2528 31.0582 15.7029 32.3893 16.6029C33.7331 17.503 34.76 18.8278 35.4699 20.5772Z" fill="#35374A"/>
</g>
<defs>
<clipPath id="clip0_716_2">
<rect width="55" height="55" fill="white"/>
</clipPath>
</defs>
</svg>
