<?xml version="1.0" standalone="no"?>
<!DOCTYPE svg PUBLIC "-//W3C//DTD SVG 20010904//EN"
 "http://www.w3.org/TR/2001/REC-SVG-20010904/DTD/svg10.dtd">
<svg version="1.0" xmlns="http://www.w3.org/2000/svg"
 width="512.000000pt" height="512.000000pt" viewBox="0 0 512.000000 512.000000"
 preserveAspectRatio="xMidYMid meet">
<metadata>
Created by potrace 1.14, written by Peter Selinger 2001-2017
</metadata>
<g transform="translate(0.000000,512.000000) scale(0.100000,-0.100000)"
fill="#000000" stroke="none">
<path d="M645 5114 c-107 -21 -139 -31 -202 -59 -216 -99 -362 -273 -419 -500
l-23 -90 2 -1930 c2 -1536 5 -1938 15 -1970 97 -301 302 -494 587 -551 58 -11
388 -13 1980 -11 1051 2 1922 6 1937 9 295 65 526 299 583 591 12 61 14 377
12 1982 -2 1051 -6 1926 -11 1945 -56 238 -231 446 -453 535 -142 57 -50 54
-2098 53 -1039 0 -1899 -2 -1910 -4z"/>
</g>
</svg>
