<svg width="384" height="384" viewBox="0 0 384 384" fill="none" xmlns="http://www.w3.org/2000/svg">
<path fillRule="evenodd" clipRule="evenodd" d="M354 192C354 281.47 281.47 354 192 354C102.53 354 30 281.47 30 192C30 102.53 102.53 30 192 30C281.47 30 354 102.53 354 192ZM384 192C384 298.039 298.039 384 192 384C85.9613 384 0 298.039 0 192C0 85.9613 85.9613 0 192 0C298.039 0 384 85.9613 384 192ZM300.251 122.291C305.935 115.525 305.057 105.433 298.291 99.7491C291.525 94.0655 281.432 94.9431 275.749 101.709L153.184 247.62L107.893 197.297C101.981 190.729 91.8649 190.196 85.2967 196.108C78.7285 202.019 78.1961 212.136 84.1074 218.704L141.707 282.704C144.805 286.146 149.243 288.077 153.873 287.998C158.504 287.919 162.873 285.837 165.851 282.291L300.251 122.291Z" fill="#47D5B5"/>
</svg>
