<svg width="384" height="384" viewBox="0 0 384 384" fill="none" xmlns="http://www.w3.org/2000/svg">
<path fill-rule="evenodd" clip-rule="evenodd" d="M299.755 312.968C271.124 338.491 233.373 354 192 354C102.53 354 30 281.47 30 192C30 150.627 45.5095 112.876 71.0316 84.2448L299.755 312.968ZM320.228 291.015L92.9848 63.7716C120.364 42.5987 154.711 30 192 30C281.47 30 354 102.53 354 192C354 229.289 341.401 263.636 320.228 291.015ZM384 192C384 298.039 298.039 384 192 384C85.9613 384 0 298.039 0 192C0 85.9613 85.9613 0 192 0C298.039 0 384 85.9613 384 192Z" fill="#D85648"/>
</svg>
