<svg width="680" height="847" viewBox="0 0 680 847" fill="none" xmlns="http://www.w3.org/2000/svg">
<rect width="680" height="847" fill="#D7EDFF"/>
<mask id="mask0_888_119" style="mask-type:alpha" maskUnits="userSpaceOnUse" x="0" y="0" width="680" height="847">
<rect width="680" height="847" fill="#D6E6FB"/>
</mask>
<g mask="url(#mask0_888_119)">
<path d="M193.264 700.858L-220.489 638.752L-402.922 551.372C-402.812 545.46 -402.553 539.51 -402.144 533.535C-401.787 528.353 -401.32 523.151 -400.732 517.93C-398.847 501.147 -395.718 484.199 -391.131 467.213C-385.564 446.614 -377.855 425.947 -367.603 405.435C-367.603 405.435 -274.699 366.84 -234.527 366.84C-228.492 366.84 -223.651 367.71 -220.489 369.714C-196.87 384.681 -130.438 474.013 -98.3271 474.013C-97.534 474.013 -96.7675 473.955 -96.0174 473.844C-77.638 471.12 -62.0713 455.67 -43.859 455.67C-31.2358 455.67 -17.3432 463.088 -0.35737 487.314C30.2025 530.908 50.7608 553.835 74.669 553.835C83.2177 553.835 92.196 550.903 102.217 544.934C132.004 527.189 150.482 503.533 172.6 503.533C178.72 503.533 185.116 505.344 192.11 509.594C224.384 529.198 293.768 641.056 293.768 641.056L193.264 700.858Z" fill="#D6E6FB"/>
<path d="M418.722 700.865C347.669 700.865 337.334 639.904 337.334 639.904C337.334 639.904 426.798 510.721 439.59 510.721C439.701 510.721 439.807 510.731 439.908 510.75C450.542 512.876 478.143 557.034 491.852 557.034C492.996 557.034 494.043 556.725 494.98 556.059C507.081 547.409 557.745 371.561 577.092 369.716C577.459 369.682 577.831 369.663 578.207 369.663C586.553 369.663 596.502 378.144 605.523 386.625C614.545 395.111 622.645 403.592 627.288 403.592C628.08 403.592 628.765 403.351 629.345 402.819C633.535 398.97 652.418 359.482 671.895 325.185C687.423 297.825 703.338 273.772 712.452 273.772C712.461 273.772 712.466 273.772 712.476 273.772C721.623 273.811 734.091 293.637 747.24 318.767C734.091 293.637 721.623 273.811 712.476 273.772C712.466 273.772 712.461 273.772 712.452 273.772C703.338 273.772 687.423 297.825 671.895 325.185L671.89 325.195C671.89 325.195 700.992 294.685 704.617 294.685C704.854 294.685 704.984 294.816 704.984 295.105C704.984 299.095 705.274 310.889 707.586 310.884C707.948 310.884 708.358 310.595 708.827 309.943C711.713 305.9 716.197 297.361 720.286 297.361C721.097 297.361 721.893 297.699 722.661 298.477C727.271 303.176 747.24 318.776 747.24 318.776C769.435 361.187 793.555 418.714 806.931 421.844C808.336 422.172 809.789 422.322 811.285 422.322C816.836 422.322 823 420.264 829.449 417.565C829.352 418.217 829.256 418.869 829.164 419.521C828.807 422.003 828.493 424.433 828.237 426.833C827.277 435.309 826.818 443.307 826.818 450.88C826.818 458.579 827.282 465.833 828.165 472.701C831.433 498.212 840.411 518.382 852.392 535.822C860.385 547.466 869.721 557.884 879.587 567.853C860.332 574.325 832.234 583.704 799.241 594.533C799.169 585.018 797.624 530.041 771.568 529.249C771.143 529.234 770.714 529.229 770.284 529.229C759.283 529.229 748.036 533.426 736.843 537.619C725.649 541.816 714.508 546.013 703.71 546.013C697.681 546.013 691.758 544.704 686 541.357C683.509 539.908 680.593 539.256 677.345 539.256C661.763 539.256 638.473 554.291 617.311 569.326C596.145 584.361 577.112 599.396 570.05 599.396C569.789 599.396 569.543 599.377 569.311 599.334C555.482 596.774 590.058 540.492 587.992 517.865C587.765 515.377 586.553 514.267 584.56 514.267C568.399 514.267 501.134 587.443 494.98 596.479C492.257 600.473 488.333 602.159 484.254 602.159C477.969 602.159 471.327 598.15 468.185 592.383C467.799 591.678 467.268 591.35 466.602 591.35C458.314 591.35 430.153 642.362 430.153 642.362L407.678 665.893L459.54 671.949L568.447 666.757L717.969 620.874C604.138 657.247 473.2 696.707 430.158 700.368C426.18 700.706 422.372 700.865 418.722 700.865Z" fill="#C0DAFC"/>
<path d="M459.537 671.948L407.676 665.892L430.15 642.361C430.15 642.361 458.311 591.349 466.599 591.349C467.265 591.349 467.796 591.677 468.183 592.382C471.325 598.149 477.967 602.158 484.252 602.158C488.331 602.158 492.255 600.472 494.977 596.478C501.132 587.442 568.396 514.265 584.557 514.265C586.551 514.265 587.762 515.376 587.989 517.864C590.055 540.491 555.479 596.773 569.309 599.332C569.54 599.376 569.787 599.395 570.047 599.395C577.109 599.395 596.142 584.36 617.309 569.325C638.47 554.29 661.761 539.255 677.342 539.255C680.591 539.255 683.506 539.907 685.997 541.356C691.756 544.703 697.679 546.012 703.707 546.012C714.506 546.012 725.646 541.815 736.84 537.617C748.034 533.425 759.281 529.228 770.282 529.228C770.711 529.228 771.141 529.233 771.566 529.247C797.622 530.04 799.167 585.017 799.239 594.532C774.37 602.699 746.711 611.687 717.966 620.873L568.445 666.756L459.537 671.948" fill="#A6CBFD"/>
<path d="M899.072 586.742C899.072 586.742 523.973 664.955 484.836 662.806C484.836 662.806 512.514 635.291 547.09 634.137C581.661 632.987 596.644 600.328 636.984 596.479C677.323 592.625 701.526 601.275 718.237 592.625C734.948 583.974 753.967 541.883 793.152 543.037C826.763 544.032 839.598 543.322 852.39 535.821C862.623 550.731 875.062 563.636 887.999 576.16C891.662 579.705 895.365 583.221 899.072 586.742" fill="#80B4FF"/>
<path d="M150.421 627.93L-402.137 533.575L-402.143 533.536C-401.785 528.354 -401.319 523.152 -400.731 517.931C-398.846 501.148 -395.717 484.2 -391.13 467.214C-391.13 467.214 -332.202 455.342 -303.677 467.214C-275.152 479.09 -277.745 498.115 -255.271 500.708C-232.803 503.307 -212.421 501.138 -195.519 514.594C-178.612 528.045 -153.256 537.656 -127.52 536.12C-101.779 534.58 -46.8442 528.431 -25.3268 545.732C-3.8171 563.027 38.8297 600.695 75.7081 600.12C112.591 599.545 133.039 609.364 139.097 617.995C144.961 626.355 150.112 627.848 150.421 627.93" fill="#AFCDFB"/>
<path d="M972.265 737.131C971.884 746.743 970.87 756.967 969.137 767.907C961.573 815.582 920.524 850.694 872.283 850.67L594.459 850.544L351.018 850.428H343.71L291.592 850.409H284.868L235.13 850.39L226.625 850.385L157.324 850.356L145.106 850.341L88.5869 850.312H80.1444L73.2176 850.308L-24.1912 850.259L-41.2026 850.255L-120.737 850.221L-132.493 850.216L-248.523 850.158C-263.361 850.153 -277.728 846.898 -290.757 840.914C-310.494 831.853 -327.159 816.514 -337.757 796.673C-357.309 760.054 -380.815 707.192 -393.596 646.249C-396.183 633.914 -398.327 621.255 -399.912 608.331C-402.523 587.118 -403.612 565.196 -402.661 542.858C-402.303 534.604 -401.67 526.287 -400.73 517.932C-346.325 517.197 -202.63 521.424 -31.6074 575.812C186.937 645.317 388.524 689.988 535.482 653.658C657.717 623.443 809.527 586.027 899.073 586.742C904.016 591.441 908.968 596.155 913.824 600.97C914.867 601.994 915.905 603.032 916.938 604.076C918.714 605.863 920.471 607.669 922.204 609.495C929.358 616.986 936.183 624.824 942.362 633.315C943.718 635.155 945.026 637.029 946.31 638.932C947.816 641.173 949.269 643.463 950.679 645.805C955.153 653.243 959.116 661.202 962.389 669.848C969.456 688.534 973.322 710.418 972.265 737.131" fill="#BFE2A8"/>
<path d="M587.99 298.481L250.311 295.023C250.311 295.023 265.472 267.102 301.39 267.102C303.388 267.102 305.445 267.189 307.573 267.368C307.573 267.368 336.106 242.132 374.582 242.132C391.255 242.132 409.795 246.87 428.693 260.457C428.693 260.457 446.481 257.477 470.461 257.477C492.835 257.477 520.595 260.07 544.349 270.097C577.153 283.949 587.99 298.481 587.99 298.481" fill="#F5FAFE"/>
<path d="M311.239 369.716L25.209 367.286C25.209 367.286 38.0489 347.644 68.4736 347.644C70.1679 347.644 71.9056 347.706 73.7109 347.832C73.7109 347.832 97.8798 330.078 130.472 330.078C144.596 330.078 160.298 333.41 176.304 342.968C176.304 342.968 191.37 340.872 211.682 340.872C230.633 340.872 254.15 342.698 274.269 349.749C302.058 359.496 311.239 369.716 311.239 369.716" fill="#F5FAFE"/>
<path d="M51.5067 270.305L-152.221 267.875C-152.221 267.875 -143.076 248.233 -121.404 248.233C-120.199 248.233 -118.959 248.295 -117.676 248.421C-117.676 248.421 -100.46 230.671 -77.2474 230.671C-67.1869 230.671 -56.0027 234.004 -44.6003 243.557C-44.6003 243.557 -33.8703 241.461 -19.4032 241.461C-5.9059 241.461 10.8438 243.287 25.1753 250.343C44.9661 260.085 51.5067 270.305 51.5067 270.305" fill="#F5FAFE"/>
<path d="M189.553 652.383C189.553 652.383 -24.9448 628.003 -111.767 596.479C-198.591 564.95 -204.902 574.218 -183.882 590.915C-162.862 607.616 -41.654 647.08 -91.8859 651.567C-142.117 656.049 -232.52 642.864 -266.589 677.75C-300.659 712.635 -354.181 743.99 -266.589 750.761C-178.998 757.528 76.7843 709.452 76.7843 709.452L189.553 652.383" fill="#DAED8E"/>
<path d="M426.073 614.537C426.073 614.537 457.193 689.49 460.649 691.799C464.11 694.103 476.83 697.025 477.694 700.488C478.558 703.946 498.435 749.781 498.435 749.781L422.376 764.482L361.869 729.027L426.073 614.537" fill="#A36F4B"/>
<path d="M872.284 850.67L642.783 850.568L594.46 850.544L351.018 850.428H343.71L291.593 850.409H284.869L235.131 850.39L226.626 850.385L157.325 850.356L145.107 850.341L88.5877 850.313H80.1453L73.2185 850.308L-24.1903 850.259L-41.2017 850.255L-120.737 850.221L-132.492 850.216L-248.522 850.158C-263.361 850.153 -277.727 846.898 -290.756 840.914C-228.687 811.993 -39.6629 725.371 110.285 672.195C292.385 607.616 396.112 573.02 426.074 614.537C456.04 656.049 346.553 743.69 406.481 745.999C466.413 748.303 610.476 729.853 664.645 740.232C718.707 750.587 713.074 771.288 727.951 772.514C728.004 772.519 728.033 772.519 728.033 772.519C743.016 773.674 858.271 765.603 872.1 786.357C885.93 807.115 872.284 850.67 872.284 850.67" fill="#D8A987"/>
<path d="M671.889 325.193L671.893 325.184C687.422 297.823 703.337 273.771 712.45 273.771C712.46 273.771 712.465 273.771 712.474 273.771C721.622 273.809 734.09 293.636 747.238 318.765V318.775C747.238 318.775 727.269 303.174 722.659 298.475C721.892 297.697 721.095 297.359 720.284 297.359C716.196 297.359 711.712 305.898 708.825 309.941C708.357 310.593 707.947 310.883 707.585 310.883C705.272 310.888 704.983 299.093 704.983 295.104C704.983 294.814 704.852 294.684 704.616 294.684C700.991 294.684 671.889 325.193 671.889 325.193" fill="#EDF5FE"/>
<path d="M547.287 423.412C547.287 423.412 570.906 360.833 583.2 362.755C595.495 364.677 612.297 393.062 612.297 393.062C612.297 393.062 595.205 378.423 592.034 383.32C588.867 388.222 588.288 397.906 582.814 393.062C577.34 388.222 573.884 387.527 571.002 393.062C568.12 398.601 547.287 423.412 547.287 423.412Z" fill="#F8FCFF"/>
<path d="M-59.7129 781.745C-74.6955 800.2 -166.897 805.962 -164.016 819.224C-161.705 829.85 -119.085 837.515 -116.451 850.222H-120.739L-132.494 850.217L-248.524 850.159C-263.363 850.154 -277.729 846.899 -290.758 840.915C-310.495 831.854 -327.16 816.515 -337.758 796.674C-345.272 782.6 -353.374 766.116 -361.229 747.7C-361.229 747.7 -321.91 708.071 -225.099 723.575C-128.287 739.079 -114.866 698.876 -69.5093 711.404C-24.1517 723.933 -12.4597 713.259 4.25292 723.575C20.9641 733.892 -59.1365 751.187 -67.7803 759.258C-76.424 767.333 -44.7298 763.295 -59.7129 781.745" fill="#509B67"/>
<path d="M-28.8438 824.053C-28.8438 824.053 -15.9179 763.811 2.08879 777.938C20.0984 792.06 -18.2938 805.97 -28.8438 824.053Z" fill="#82B378"/>
<path d="M651.186 781.407C651.186 781.407 650.804 760.649 660.405 756.998C670.011 753.346 652.146 776.027 651.186 781.407Z" fill="#509B67"/>
<path d="M658.898 778.45C658.898 778.45 666.231 752.191 679.688 751.215C693.146 750.239 662.133 772.041 658.898 778.45" fill="#509B67"/>
<path d="M562.32 724.926C567.379 727.158 585.741 726.037 586.378 724.593C587.015 723.149 575.469 708.824 570.406 706.588C565.347 704.356 559.434 706.646 557.204 711.712C554.969 716.774 557.262 722.69 562.32 724.926" fill="#509B67"/>
<path d="M608.234 735.079C605.213 739.715 603.354 758.025 604.677 758.885C605.999 759.749 621.991 750.66 625.013 746.028C628.035 741.391 626.727 735.18 622.093 732.162C617.459 729.138 611.256 730.442 608.234 735.079" fill="#509B67"/>
<path d="M582.463 770.231C587.681 772.076 605.898 769.559 606.424 768.072C606.95 766.579 594.347 753.177 589.133 751.337C583.915 749.492 578.195 752.23 576.356 757.446C574.512 762.667 577.249 768.391 582.463 770.231Z" fill="#509B67"/>
<path d="M608.585 788.805C608.58 788.384 607.827 746.8 585.758 724.66L586.255 724.163C608.527 746.505 609.285 788.375 609.29 788.795L608.585 788.805" fill="#509B67"/>
<path d="M642.613 790.041L641.653 789.891C637.864 740.826 622.885 705.616 622.678 705.138L623.551 704.762C623.764 705.244 638.848 740.685 642.613 790.041Z" fill="#509B67"/>
<path d="M612.517 700.203C614.366 702.294 623.011 705.661 623.609 705.134C624.208 704.608 621.939 695.605 620.095 693.514C618.247 691.418 615.056 691.22 612.961 693.07C610.871 694.915 610.673 698.112 612.517 700.203Z" fill="white"/>
<path d="M625.768 692.904C624.102 695.145 622.587 704.302 623.229 704.78C623.866 705.254 632.207 701.187 633.872 698.946C635.538 696.71 635.079 693.541 632.839 691.87C630.604 690.204 627.438 690.668 625.768 692.904" fill="white"/>
<path d="M635.713 702.643C633.019 701.914 623.945 703.85 623.737 704.618C623.529 705.386 630.365 711.665 633.058 712.399C635.747 713.133 638.527 711.544 639.261 708.854C639.994 706.159 638.406 703.382 635.713 702.643Z" fill="white"/>
<path d="M629.586 714.788C629.315 712.006 624.291 704.206 623.494 704.284C622.702 704.361 619.261 712.982 619.526 715.759C619.797 718.536 622.268 720.575 625.044 720.304C627.819 720.038 629.856 717.566 629.586 714.788" fill="white"/>
<path d="M615.823 714.191C618.295 712.892 623.614 705.29 623.243 704.585C622.876 703.875 613.593 703.942 611.127 705.242C608.655 706.536 607.704 709.593 609.003 712.066C610.297 714.539 613.352 715.49 615.823 714.191" fill="white"/>
<path d="M621.601 704.318C621.746 703.41 622.6 702.792 623.508 702.937C624.415 703.082 625.033 703.937 624.888 704.845C624.743 705.753 623.889 706.371 622.982 706.226C622.074 706.081 621.456 705.226 621.601 704.318Z" fill="#F99746"/>
<path d="M642.338 739.88C639.591 743.26 636.627 757.431 637.593 758.213C638.558 759.001 651.818 753.205 654.564 749.829C657.311 746.448 656.799 741.483 653.421 738.74C650.046 735.992 645.084 736.504 642.338 739.88Z" fill="#509B67"/>
<path d="M872.283 850.67L642.782 850.568C643.94 839.624 664.716 834.094 662.79 823.295C660.318 809.457 558.077 804.265 599.107 786.612C639.408 769.274 724.89 772.398 727.95 772.514C728.003 772.519 728.032 772.519 728.032 772.519C743.015 773.673 858.27 765.603 872.099 786.357C885.929 807.115 872.283 850.67 872.283 850.67" fill="#509B67"/>
<path d="M191.904 724.931C191.904 724.931 193.314 746.945 197.571 747.249C198.141 747.293 219.162 747.245 219.162 747.245L246.001 747.032C246.001 747.032 245.812 740.56 237.964 739.208C230.115 737.86 216.971 732.374 212.197 722.009C207.172 711.103 191.904 724.931 191.904 724.931Z" fill="#AF5919"/>
<path d="M328.482 706.274C328.482 706.274 332.581 727.945 336.843 727.728C337.412 727.699 358.27 725.076 358.27 725.076L384.881 721.575C384.881 721.575 383.901 715.175 375.946 714.799C367.992 714.422 354.278 710.587 348.268 700.884C341.95 690.679 328.482 706.274 328.482 706.274Z" fill="#AF5919"/>
<path d="M280.892 488.132C280.892 488.132 273.97 533.068 247.957 612.861C221.944 692.659 218.455 727.196 218.455 727.196L190.361 726.467C190.361 726.467 189.932 639.323 201.912 599.197C213.893 559.076 204.2 454.637 204.2 454.637L280.892 488.132" fill="#163560"/>
<path d="M288.51 447.344C288.51 447.344 326.754 524.621 336.481 585.795C346.212 646.969 353.868 702.941 353.868 702.941C353.868 702.941 344.469 706.4 326.86 707.926C326.86 707.926 297.058 619.106 293.897 596.986C290.735 574.865 201.923 486.432 208.854 464.606C215.791 442.776 288.51 447.344 288.51 447.344" fill="#1C468A"/>
<path d="M233.098 298.277C233.098 298.277 193.604 336.215 191.712 351.835C189.824 367.454 210.875 391.835 210.875 391.835L233.098 298.277Z" fill="#ED7D2B"/>
<path d="M239.881 298.617L254.835 308.383L276.417 304.311C276.113 302.568 274.669 295.342 273.361 288.803C273.279 288.417 273.202 288.03 273.125 287.653C272.005 282.085 271.034 277.303 271.034 277.303L250.853 268.445L243.327 265.142C243.347 265.263 243.926 271.324 244.003 272.208C245.446 287.924 239.881 298.617 239.881 298.617" fill="#FFB27D"/>
<path d="M270.861 293.602C270.446 293.428 244.853 285.932 242.073 286.855C239.298 287.777 237.666 293.162 237.666 293.162L279.521 302.532C279.521 302.532 276.215 295.843 270.861 293.602" fill="#ED7D2B"/>
<path d="M202.364 465.461C206.742 485.239 278.896 487.427 297.456 469.426C299.566 467.373 299.653 457.844 298.827 445.007C297.21 419.916 292.118 382.181 291.881 362.895C291.765 353.584 290.462 344.059 288.744 335.414C285.075 316.988 279.519 302.533 279.519 302.533C279.519 302.533 244.253 291.212 237.664 293.163C205.917 302.571 197.986 445.678 202.364 465.461Z" fill="#F99746"/>
<path d="M298.83 445.007C297.212 419.916 296.339 378.486 296.102 359.201C295.986 349.889 290.464 344.06 288.746 335.414L267.536 331.715C267.536 331.715 246.992 416.468 298.83 445.007" fill="#ED7D2B"/>
<path d="M260.766 415.323C260.766 415.323 284.785 394.323 293.768 381.041L300.555 385.63C300.555 385.63 281.619 417.342 263.517 425.702C245.416 434.063 260.766 415.323 260.766 415.323" fill="#163560"/>
<path d="M245.52 272.482C249.961 279.978 266.474 286.43 273.362 288.802C273.28 288.415 273.203 288.029 273.126 287.652C272.006 282.083 271.036 277.302 271.036 277.302L250.854 268.444C246.398 268.391 243.686 269.396 245.52 272.482" fill="#FCA56B"/>
<path d="M277.884 275.134C277.884 275.134 247.252 289.942 238.332 270.71C229.406 251.482 219.443 240.442 238.621 230.173C257.804 219.905 265.035 225.469 269.577 231.159C274.114 236.853 285.622 270.782 277.884 275.134Z" fill="#FFB27D"/>
<path d="M268.026 229.41C268.026 229.41 269.455 253.119 264.468 252.825C259.477 252.525 254.978 252.428 256.735 259.379C258.492 266.329 266.414 273.477 251.691 276.94C236.969 280.407 209.817 245.131 212.829 237.239C221.522 214.462 281.29 201.228 268.026 229.41" fill="#163560"/>
<path d="M218.7 381.224C218.7 381.224 215.036 381.669 214.703 385.117C214.365 388.566 212.053 430.546 214.152 431.657C216.247 432.768 224.97 432.319 225.477 431.657C225.984 430.995 227.871 384.924 226.601 382.147C226.601 382.147 222.349 380.495 218.7 381.224Z" fill="#163560"/>
<path d="M299.036 429.116C299.036 429.116 304.094 432.873 305.156 436.945C306.88 443.542 305.779 449.715 299.311 452.193C296.926 453.11 296.598 447.44 294.831 445.006C293.065 442.567 286.756 441.219 288.199 437.515C289.642 433.806 292.466 426.556 292.466 426.556L299.036 429.116" fill="#FFB27D"/>
<path d="M290.616 431.305C290.616 431.305 286.615 435.705 286.204 438.54C285.789 441.371 285.625 445.751 285.533 447.62C285.442 449.489 286.383 451.035 288.111 447.992C289.839 444.945 291.326 440.897 292.499 440.902C293.677 440.907 290.616 431.305 290.616 431.305Z" fill="#FFB27D"/>
<path d="M262.898 297.53C262.898 297.53 288.013 301.973 307.393 330.416C326.774 358.858 333.952 377.047 330.414 387.32C326.875 397.593 309.223 429.446 305.661 433.759C302.61 437.449 293.767 437.183 287.984 434.691C287.984 434.691 299.192 387.296 294.684 382.177C292.758 379.989 267.899 358.984 263.965 369.165C257.453 386.011 262.898 297.53 262.898 297.53Z" fill="#F99746"/>
<path d="M284.356 307.208C284.356 307.208 280.239 299.935 270.483 298.481C260.733 297.027 254.834 308.382 254.834 308.382L262.128 311.154C262.128 311.154 266.819 302.533 271.062 302.533C276.416 302.533 280.745 304.354 284.356 307.208" fill="#163560"/>
<path d="M268.547 342.081C268.547 342.081 258.391 341.946 245.373 341.642C222.483 341.115 190.75 340.086 189.934 338.425C188.66 335.812 190.354 306.751 198.179 304.65C198.859 304.467 199.834 304.317 201.046 304.201C213.683 302.989 252.309 305.283 261.224 308.152C270.98 311.301 268.547 342.081 268.547 342.081Z" fill="#163560"/>
<path d="M245.373 341.639C222.483 341.112 190.75 340.083 189.934 338.422C188.66 335.809 190.354 306.748 198.179 304.647C198.859 304.464 199.834 304.314 201.046 304.198C215.995 304.845 232.566 306.391 238.016 308.149C247.091 311.076 245.628 337.871 245.373 341.639" fill="#1C468A"/>
<path d="M268.547 342.08C268.547 342.08 190.142 334.285 176.563 338.82C162.985 343.351 162.985 435.909 167.228 442.279C171.471 448.645 248.495 454.561 259.419 451.18C270.343 447.8 268.547 342.08 268.547 342.08Z" fill="#1C468A"/>
<path d="M245.388 340.037C245.388 340.037 234.653 341.018 233.668 348.659C232.684 356.304 225.906 449.35 232.051 451.813C238.201 454.271 263.765 453.276 265.251 451.813C266.733 450.345 272.27 348.233 268.548 342.08C268.548 342.08 256.08 338.424 245.388 340.037Z" fill="#163560"/>
<path d="M196.77 314.675C196.77 314.675 194.27 327.585 197.494 329.551C200.723 331.517 208.567 332.077 210.517 329.773C212.463 327.469 212.043 314.936 212.043 314.936L196.77 314.675Z" fill="#163560"/>
<path d="M196.768 314.675C196.768 314.675 197.858 319.896 203.979 320.002C210.095 320.104 212.04 314.936 212.04 314.936C212.04 314.936 203.738 311.178 196.768 314.675Z" fill="#29589B"/>
<path d="M202.875 317.964C202.885 317.336 203.406 316.833 204.034 316.843C204.661 316.853 205.163 317.374 205.154 318.002C205.144 318.635 204.623 319.137 203.995 319.123C203.363 319.113 202.861 318.596 202.875 317.964Z" fill="#F99746"/>
<path d="M219.864 316.243C219.864 316.243 216.543 328.965 219.637 331.138C222.731 333.307 230.522 334.365 232.617 332.191C234.707 330.023 235.088 317.485 235.088 317.485L219.864 316.243" fill="#163560"/>
<path d="M219.861 316.247C219.861 316.247 220.619 321.53 226.716 322.023C232.817 322.52 235.086 317.488 235.086 317.488C235.086 317.488 227.044 313.209 219.861 316.247Z" fill="#29589B"/>
<path d="M225.744 319.921C225.793 319.293 226.343 318.825 226.97 318.878C227.598 318.926 228.066 319.477 228.018 320.11C227.965 320.737 227.414 321.201 226.787 321.153C226.159 321.1 225.691 320.549 225.744 319.921Z" fill="#F99746"/>
<path d="M175.08 349.72C175.08 349.72 171.686 361.712 173.598 364.847C175.504 367.976 218.576 370.102 221.332 367.551C224.093 365.006 224.518 351.207 224.518 351.207L175.08 349.72" fill="#163560"/>
<path d="M175.078 349.72C175.078 349.72 180.967 357.153 195.844 357.361C210.726 357.574 224.517 351.208 224.517 351.208C224.517 351.208 189.718 345.05 175.078 349.72" fill="#29589B"/>
<path d="M193.535 354.549C193.535 353.844 194.11 353.274 194.809 353.274C195.514 353.274 196.084 353.844 196.084 354.549C196.084 355.254 195.514 355.824 194.809 355.824C194.11 355.824 193.535 355.254 193.535 354.549Z" fill="#F99746"/>
<path d="M212.722 380.732C212.722 380.732 177.147 379.216 175.076 380.732C173.01 382.254 172.214 431.29 173.807 433.681C175.395 436.067 211.361 437.183 211.361 437.183L212.722 380.732" fill="#29589B"/>
<path d="M972.264 737.13C950.465 736.067 917.656 734.382 889.384 732.542C842.132 729.465 862.879 714.86 884.774 694.097C906.674 673.328 816.776 684.876 749.931 689.508C683.087 694.135 582.815 691.798 618.53 662.853C654.245 633.903 913.823 600.969 913.823 600.969C914.866 601.993 915.904 603.031 916.937 604.074C918.713 605.861 920.47 607.668 922.203 609.493C929.357 616.984 936.182 624.823 942.361 633.314C943.717 635.154 945.025 637.028 946.309 638.931C947.815 641.172 949.268 643.461 950.677 645.804C955.152 653.241 959.115 661.201 962.388 669.846C969.455 688.533 973.321 710.416 972.264 737.13" fill="#DAED8E"/>
<path d="M569.759 815.915L571.376 788.414C571.376 788.414 557.547 776.9 555.568 776.108C553.593 775.316 523.738 770.747 523.738 770.747L525.027 796.577L534.377 815.345L569.759 815.915" fill="#EDC5A2"/>
<path d="M501.759 815.006C501.759 815.006 499.828 794.981 500.856 792.793C501.884 790.601 520.623 770.113 523.736 770.745C526.845 771.378 544 777.787 547.007 780.212C550.01 782.636 556.99 801.588 556.874 803.559C556.758 805.53 556.159 815.691 556.159 815.691L501.759 815.006Z" fill="#F9DDBF"/>
<path d="M523.52 822.353L523.732 810.544C523.766 808.695 522.916 806.941 521.439 805.83C518.249 803.425 512.823 799.397 511.795 799.035C510.868 798.707 501.88 797.62 495.277 796.852C491.637 796.432 488.534 799.465 488.862 803.116L489.837 813.804C489.909 814.597 490.141 815.364 490.527 816.065L495.692 825.454C496.73 827.342 498.738 828.497 500.891 828.444L517.891 828.023C520.981 827.946 523.467 825.444 523.52 822.353" fill="#EDC5A2"/>
<path d="M478.619 829.11C475.626 829.197 473.072 826.98 472.72 824.005C472.204 819.624 471.639 813.935 472.054 812.949C472.744 811.307 490.792 796.639 493.1 797.016C495.407 797.388 503.338 800.619 505.621 802.314C507.904 804.005 513.605 817.731 513.576 819.185L513.518 822.614C513.46 825.7 510.989 828.197 507.904 828.284L478.619 829.11Z" fill="#F9DDBF"/>
<path d="M47.4568 751.24L47.2782 741.257C47.2492 739.692 47.9685 738.209 49.2187 737.267C51.917 735.234 56.5075 731.829 57.3763 731.525C58.1583 731.244 65.756 730.327 71.3409 729.68C74.4205 729.322 77.0464 731.887 76.7664 734.973L75.9458 744.01C75.8831 744.681 75.6852 745.333 75.3618 745.927L70.9933 753.862C70.1148 755.461 68.4157 756.437 66.5959 756.393L52.221 756.036C49.6048 755.973 47.5051 753.858 47.4568 751.24" fill="#EDC5A2"/>
<path d="M85.4289 756.957C87.9582 757.029 90.1208 755.155 90.4152 752.639C90.8545 748.93 91.3275 744.119 90.9799 743.289C90.3959 741.898 75.1329 729.5 73.1827 729.814C71.2326 730.128 64.523 732.861 62.5922 734.296C60.6614 735.725 55.844 747.336 55.8633 748.563L55.9165 751.461C55.9647 754.074 58.0548 756.184 60.6614 756.257L85.4289 756.957Z" fill="#F9DDBF"/>
<path d="M6.64996 758.58L6.55342 753.151C6.53411 752.301 6.92509 751.494 7.6057 750.983C9.07311 749.876 11.5687 748.022 12.0418 747.858C12.4665 747.708 16.5984 747.206 19.6395 746.853C21.3096 746.66 22.7384 748.056 22.5888 749.732L22.1399 754.648C22.1061 755.011 21.9999 755.368 21.8213 755.687L19.4464 760.005C18.9685 760.874 18.0465 761.405 17.057 761.381L9.23722 761.188C7.81808 761.154 6.67409 760 6.64996 758.58" fill="#EDC5A2"/>
<path d="M27.2976 761.686C28.6733 761.725 29.8462 760.711 30.0104 759.339C30.2469 757.325 30.5027 754.707 30.3145 754.253C29.9959 753.5 21.6982 746.758 20.6363 746.927C19.5743 747.1 15.9299 748.583 14.8777 749.366C13.8302 750.143 11.2091 756.456 11.2188 757.122L11.2477 758.702C11.2719 760.122 12.411 761.266 13.8302 761.31L27.2976 761.686" fill="#F9DDBF"/>
<path d="M411.91 776.223L411.813 770.8C411.794 769.945 412.185 769.138 412.866 768.626C414.333 767.52 416.829 765.67 417.302 765.501C417.726 765.352 421.858 764.854 424.894 764.501C426.569 764.303 427.998 765.699 427.849 767.38L427.4 772.292C427.366 772.659 427.26 773.012 427.081 773.335L424.706 777.653C424.228 778.522 423.306 779.054 422.317 779.029L414.497 778.836C413.078 778.798 411.934 777.648 411.91 776.223" fill="#EDC5A2"/>
<path d="M432.556 779.334C433.932 779.373 435.11 778.353 435.269 776.987C435.511 774.973 435.766 772.355 435.578 771.901C435.26 771.147 426.962 764.405 425.9 764.574C424.838 764.743 421.194 766.231 420.141 767.008C419.094 767.791 416.473 774.103 416.482 774.77L416.511 776.344C416.536 777.764 417.675 778.914 419.094 778.952L432.556 779.334" fill="#F9DDBF"/>
<path d="M22.6655 742.735L22.5979 738.953C22.5883 738.359 22.8585 737.799 23.3316 737.441C24.3549 736.669 26.0926 735.379 26.4209 735.263C26.7201 735.162 29.5971 734.814 31.7113 734.568C32.8795 734.428 33.8738 735.403 33.7676 736.572L33.4587 739.996C33.4346 740.248 33.3573 740.494 33.2366 740.721L31.581 743.725C31.2479 744.334 30.6059 744.701 29.9157 744.686L24.4708 744.551C23.4812 744.527 22.6848 743.725 22.6655 742.735" fill="#EDC5A2"/>
<path d="M37.0483 744.898C38.0041 744.922 38.8247 744.217 38.9357 743.261C39.0999 741.86 39.2833 740.034 39.1481 739.72C38.9309 739.194 33.1481 734.499 32.4096 734.615C31.6711 734.736 29.1272 735.77 28.3983 736.315C27.6694 736.856 25.84 741.251 25.8496 741.72L25.869 742.816C25.8883 743.806 26.6799 744.603 27.6646 744.632L37.0483 744.898Z" fill="#F9DDBF"/>
</g>
</svg>
